<?xml version="1.0" encoding="utf-8"?>
<!-- Generator: Adobe Illustrator 21.0.2, SVG Export Plug-In . SVG Version: 6.00 Build 0)  -->
<svg version="1.1" id="Layer_2_1_" xmlns="http://www.w3.org/2000/svg" xmlns:xlink="http://www.w3.org/1999/xlink" x="0px" y="0px"
	 viewBox="0 0 380 338.4" style="enable-background:new 0 0 380 338.4;" xml:space="preserve">
<style type="text/css">
	.st0{fill:#61DAFB;}
</style>
<g>
	<path class="st0" d="M380,169.2c0-25.2-31.5-49-79.9-63.8c11.2-49.3,6.2-88.5-15.6-101c-5-2.9-10.9-4.3-17.4-4.3v17.3
		c3.6,0,6.4,0.7,8.8,2c10.5,6,15.1,29,11.5,58.6c-0.9,7.3-2.2,14.9-4,22.8c-15.2-3.7-31.8-6.6-49.2-8.4
		C223.9,78,213.1,65,202.2,53.6c25.3-23.5,49-36.3,65.1-36.3V0l0,0c-21.3,0-49.2,15.2-77.4,41.5c-28.2-26.2-56.1-41.2-77.4-41.2
		v17.3c16,0,39.8,12.8,65.1,36.1c-10.8,11.4-21.7,24.3-32,38.7c-17.5,1.9-34.1,4.7-49.3,8.5c-1.8-7.7-3.1-15.3-4-22.5
		c-3.6-29.6,0.9-52.6,11.3-58.7c2.3-1.4,5.3-2,8.9-2V0.4l0,0c-6.5,0-12.4,1.4-17.5,4.3C73.2,17.3,68.3,56.4,79.5,105.5
		C31.4,120.4,0,144.1,0,169.2c0,25.2,31.5,49,79.9,63.8c-11.2,49.3-6.2,88.5,15.6,101c5,2.9,10.9,4.3,17.4,4.3
		c21.3,0,49.2-15.2,77.4-41.5c28.2,26.2,56.1,41.2,77.4,41.2c6.5,0,12.4-1.4,17.5-4.3c21.8-12.5,26.6-51.7,15.4-100.8
		C348.6,218.2,380,194.3,380,169.2z M279.2,117.6c-2.9,10-6.4,20.3-10.5,30.6c-3.2-6.2-6.5-12.4-10.1-18.6
		c-3.6-6.2-7.4-12.2-11.2-18.1C258.4,113.1,269,115.1,279.2,117.6z M243.7,200.1c-6,10.5-12.2,20.4-18.7,29.6
		c-11.5,1-23.2,1.5-35,1.5c-11.7,0-23.4-0.5-34.9-1.5c-6.4-9.2-12.7-19.1-18.7-29.4c-5.9-10.1-11.2-20.4-16.1-30.8
		c4.8-10.4,10.2-20.8,16-30.9c6-10.5,12.2-20.4,18.7-29.6c11.5-1,23.2-1.5,35-1.5c11.7,0,23.4,0.5,34.9,1.5
		c6.4,9.2,12.7,19.1,18.7,29.4c5.9,10.1,11.2,20.4,16.1,30.8C254.8,179.5,249.5,189.9,243.7,200.1z M268.7,190
		c4.2,10.4,7.7,20.8,10.7,30.8c-10.1,2.5-20.8,4.6-31.9,6.2c3.8-6,7.6-12.1,11.2-18.4C262.2,202.5,265.5,196.2,268.7,190z
		 M190.2,272.6c-7.2-7.4-14.4-15.7-21.5-24.8c7,0.3,14.1,0.5,21.3,0.5c7.3,0,14.5-0.2,21.5-0.5C204.5,256.9,197.3,265.2,190.2,272.6
		z M132.5,227c-11-1.6-21.6-3.6-31.8-6.1c2.9-10,6.4-20.3,10.5-30.6c3.2,6.2,6.5,12.4,10.1,18.6C125,215.1,128.7,221.1,132.5,227z
		 M189.8,65.8c7.2,7.4,14.4,15.7,21.5,24.8c-7-0.3-14.1-0.5-21.3-0.5c-7.3,0-14.5,0.2-21.5,0.5C175.4,81.6,182.6,73.3,189.8,65.8z
		 M132.5,111.5c-3.8,6-7.6,12.1-11.2,18.4c-3.6,6.2-6.9,12.4-10.1,18.6c-4.2-10.4-7.7-20.8-10.7-30.8
		C110.7,115.2,121.4,113.1,132.5,111.5z M62.4,208.4c-27.4-11.7-45.2-27-45.2-39.2c0-12.2,17.7-27.6,45.2-39.2
		c6.7-2.9,13.9-5.4,21.5-7.8c4.4,15.2,10.2,31,17.4,47.2c-7.1,16.1-12.9,31.8-17.2,46.9C76.4,213.9,69.1,211.3,62.4,208.4z
		 M104,319.1c-10.5-6-15.1-29-11.5-58.6c0.9-7.3,2.2-14.9,4-22.8c15.2,3.7,31.8,6.6,49.2,8.4c10.5,14.3,21.3,27.3,32.2,38.7
		c-25.3,23.5-49,36.3-65.1,36.3C109.3,321.1,106.3,320.4,104,319.1z M287.7,260.1c3.6,29.6-0.9,52.6-11.3,58.7c-2.3,1.4-5.3,2-8.9,2
		c-16,0-39.8-12.8-65.1-36.1c10.8-11.4,21.7-24.3,32-38.7c17.5-1.9,34.1-4.7,49.3-8.5C285.5,245.4,286.9,252.9,287.7,260.1z
		 M317.6,208.4c-6.7,2.9-13.9,5.4-21.5,7.8c-4.4-15.2-10.2-31-17.4-47.2c7.1-16.1,12.9-31.8,17.2-46.9c7.7,2.4,14.9,5,21.8,7.9
		c27.4,11.7,45.2,27,45.2,39.2C362.7,181.4,345,196.8,317.6,208.4z"/>
	<path class="st0" d="M112.4,0.3L112.4,0.3L112.4,0.3z"/>
	<circle class="st0" cx="189.9" cy="169.2" r="35.4"/>
	<path class="st0" d="M267.1,0.1L267.1,0.1L267.1,0.1z"/>
</g>
</svg>
